<?xml version="1.0" encoding="UTF-8"?>
<svg version="1.1" xmlns="http://www.w3.org/2000/svg" width="64" height="64">
<path d="M0 0 C21.12 0 42.24 0 64 0 C64 21.12 64 42.24 64 64 C42.88 64 21.76 64 0 64 C0 42.88 0 21.76 0 0 Z " fill="#1DC86C" transform="translate(0,0)"/>
<path d="M0 0 C0.99 0 1.98 0 3 0 C3 4.95 3 9.9 3 15 C3.66 15 4.32 15 5 15 C4.9071875 13.1128125 4.9071875 13.1128125 4.8125 11.1875 C4.81939628 7.29799613 4.81939628 7.29799613 6.25 4.9375 C8 4 8 4 10.125 4.25 C12 5 12 5 13 6 C13.07179964 7.51928038 13.08392007 9.04167482 13.0625 10.5625 C13.05347656 11.38878906 13.04445313 12.21507812 13.03515625 13.06640625 C13.02355469 13.70449219 13.01195312 14.34257813 13 15 C13.99 15 14.98 15 16 15 C16 10.05 16 5.1 16 0 C16.99 0 17.98 0 19 0 C19.05382106 2.62527189 19.09358313 5.24944713 19.125 7.875 C19.14175781 8.62136719 19.15851562 9.36773437 19.17578125 10.13671875 C19.1933959 12.09194461 19.10320189 14.04742021 19 16 C18.34 16.66 17.68 17.32 17 18 C12.44444444 17.44444444 12.44444444 17.44444444 11 16 C10.92820036 14.48071962 10.91607993 12.95832518 10.9375 11.4375 C10.94652344 10.61121094 10.95554687 9.78492188 10.96484375 8.93359375 C10.97644531 8.29550781 10.98804688 7.65742188 11 7 C10.01 7 9.02 7 8 7 C8.02320313 7.62648438 8.04640625 8.25296875 8.0703125 8.8984375 C8.09738281 10.12433594 8.09738281 10.12433594 8.125 11.375 C8.14820313 12.18710937 8.17140625 12.99921875 8.1953125 13.8359375 C8 16 8 16 6 18 C1.44444444 17.44444444 1.44444444 17.44444444 0 16 C-0.07319621 13.30345146 -0.09242537 10.63308542 -0.0625 7.9375 C-0.05798828 7.17888672 -0.05347656 6.42027344 -0.04882812 5.63867188 C-0.0370068 3.75908129 -0.01907078 1.87953101 0 0 Z " fill="#DFF3DD" transform="translate(11,23)"/>
<path d="M0 0 C0.99 0 1.98 0 3 0 C3 2.31 3 4.62 3 7 C5.31 7 7.62 7 10 7 C10 4.69 10 2.38 10 0 C10.66 0 11.32 0 12 0 C12 5.94 12 11.88 12 18 C11.34 18 10.68 18 10 18 C10 15.36 10 12.72 10 10 C7.69 10 5.38 10 3 10 C3 12.64 3 15.28 3 18 C2.01 18 1.02 18 0 18 C0 12.06 0 6.12 0 0 Z " fill="#E8F6E4" transform="translate(32,23)"/>
<path d="M0 0 C0.99 0 1.98 0 3 0 C3.05382106 2.62527189 3.09358313 5.24944713 3.125 7.875 C3.14175781 8.62136719 3.15851562 9.36773437 3.17578125 10.13671875 C3.1933959 12.09194461 3.10320189 14.04742021 3 16 C2.34 16.66 1.68 17.32 1 18 C-1.125 17.625 -1.125 17.625 -3 17 C-2.67 16.34 -2.34 15.68 -2 15 C-1.34 15 -0.68 15 0 15 C0 10.05 0 5.1 0 0 Z " fill="#DCF2DC" transform="translate(27,23)"/>
<path d="M0 0 C0.66 0 1.32 0 2 0 C2 5.94 2 11.88 2 18 C1.34 18 0.68 18 0 18 C-0.33 15.36 -0.66 12.72 -1 10 C-3.97 9.505 -3.97 9.505 -7 9 C-7 8.67 -7 8.34 -7 8 C-4.69 8 -2.38 8 0 8 C0 5.36 0 2.72 0 0 Z " fill="#FDFCF3" transform="translate(42,23)"/>
<path d="M0 0 C3.69230769 0.69230769 3.69230769 0.69230769 5 2 C5.20768229 3.47396739 5.36716017 4.9549126 5.5 6.4375 C5.79146944 9.84497505 5.79146944 9.84497505 7 13 C5.68 12.67 4.36 12.34 3 12 C2.96261719 11.37351562 2.92523437 10.74703125 2.88671875 10.1015625 C2.82097656 9.28429688 2.75523438 8.46703125 2.6875 7.625 C2.62949219 6.81289063 2.57148438 6.00078125 2.51171875 5.1640625 C2.17009472 2.62078662 2.17009472 2.62078662 -1 1 C-0.67 0.67 -0.34 0.34 0 0 Z " fill="#F8FAEF" transform="translate(19,27)"/>
<path d="M0 0 C0.33 0 0.66 0 1 0 C1 2.31 1 4.62 1 7 C3.31 7 5.62 7 8 7 C7.67 7.99 7.34 8.98 7 10 C5.02 10 3.04 10 1 10 C1 12.64 1 15.28 1 18 C0.67 18 0.34 18 0 18 C-0.83288874 11.74692761 -1.03863773 6.23182639 0 0 Z " fill="#CFEFD2" transform="translate(34,23)"/>
<path d="M0 0 C1.67542976 0.28604898 3.34385343 0.61781233 5 1 C4.67 2.65 4.34 4.3 4 6 C2.68 5.67 1.36 5.34 0 5 C-0.5625 3.0625 -0.5625 3.0625 -1 1 C-0.67 0.67 -0.34 0.34 0 0 Z " fill="#F1F8E9" transform="translate(48,35)"/>
</svg>
